<?xml version="1.0" encoding="UTF-8"?>
<svg version="1.1" xmlns="http://www.w3.org/2000/svg" width="512" height="512">
<path d="M0 0 C11.28574574 7.68659688 21.82694495 16.28439129 32.00878906 25.36816406 C32.54036621 25.84189453 33.07194336 26.315625 33.61962891 26.80371094 C40.39876568 32.88055165 46.9310746 39.1967952 53.38378906 45.61816406 C54.03782715 46.2675293 54.69186523 46.91689453 55.36572266 47.5859375 C59.78181903 52.01666043 63.93345016 56.62394341 68.00878906 61.36816406 C68.86601562 62.34398438 69.72324219 63.31980469 70.60644531 64.32519531 C76.09827048 70.68735727 81.26133385 77.23480898 86.25878906 83.99316406 C86.82476807 84.75604736 87.39074707 85.51893066 87.97387695 86.30493164 C88.5268042 87.06056396 89.07973145 87.81619629 89.64941406 88.59472656 C90.22087158 89.35382324 90.7923291 90.11291992 91.38110352 90.89501953 C93.00878906 93.36816406 93.00878906 93.36816406 94.22045898 96.34521484 C95.8021735 99.8767645 97.01777316 101.87791879 100.00878906 104.36816406 C106.06010886 106.29942126 112.49880293 106.1168294 118.78637695 106.02197266 C121.81093045 105.99326239 124.80922685 106.10276957 127.83105469 106.22363281 C137.3609792 106.57359836 137.3609792 106.57359836 145.85159302 102.9407959 C149.016709 99.41651038 151.13258703 95.4238547 153.13674927 91.15789795 C154.2430375 88.88740347 155.62078783 86.933374 157.15332031 84.93066406 C157.81654297 84.0360144 157.81654297 84.0360144 158.49316406 83.12329102 C158.93144531 82.54409912 159.36972656 81.96490723 159.82128906 81.36816406 C160.315 80.71356201 160.80871094 80.05895996 161.31738281 79.38452148 C166.88578604 72.09260652 172.88036371 65.19140934 179.00878906 58.36816406 C179.49814941 57.82095703 179.98750977 57.27375 180.49169922 56.70996094 C186.55850453 49.95127293 192.8527245 43.43046684 199.25878906 36.99316406 C199.90823486 36.33904541 200.55768066 35.68492676 201.22680664 35.01098633 C223.97404981 12.33884517 259.56029686 -19.7803309 293.38378906 -21.06933594 C299.34074426 -21.05850511 304.94485659 -18.89713401 309.31738281 -14.88183594 C310.37499635 -13.812795 311.4176498 -12.72878452 312.44628906 -11.63183594 C313.00558105 -11.05296631 313.56487305 -10.47409668 314.14111328 -9.87768555 C319.07583008 -4.7069359 323.60514823 0.74043426 328.00878906 6.36816406 C328.87688618 7.43595019 329.74675787 8.50229546 330.61816406 9.56738281 C349.64758049 32.99550769 363.39167125 59.8212827 373.00878906 88.36816406 C373.29109375 89.16963867 373.57339844 89.97111328 373.86425781 90.796875 C377.83257744 102.10658595 381.05415112 114.78431817 376.38378906 126.43066406 C372.09570648 133.96333778 366.67441777 138.71861915 359.32128906 143.18066406 C358.49765869 143.68984375 357.67402832 144.19902344 356.82543945 144.72363281 C345.15371979 151.84288373 332.97903291 158.90026515 320.00878906 163.36816406 C322.85097773 165.61853769 325.69349412 167.32494385 328.93847656 168.93457031 C340.29999983 174.65852071 351.05068843 180.42057426 361.00878906 188.36816406 C362.31203125 189.39876953 362.31203125 189.39876953 363.64160156 190.45019531 C368.83569354 194.79574751 372.6424244 199.49634112 376.00878906 205.36816406 C376.37875 206.00753906 376.74871094 206.64691406 377.12988281 207.30566406 C382.58978837 220.11824243 373.67499245 237.05118208 369.02197266 248.87597656 C361.64595275 266.980404 352.4110805 284.484375 341.00878906 300.36816406 C340.28175781 301.38910156 339.55472656 302.41003906 338.80566406 303.46191406 C330.44794411 314.88613557 321.15922963 325.39060751 311.25878906 335.49316406 C310.56205078 336.21592529 309.8653125 336.93868652 309.14746094 337.68334961 C302.4151335 344.43880945 295.61222493 348.41018868 285.94628906 348.68066406 C276.72028415 348.54642325 269.45836185 344.75103781 261.65332031 340.21191406 C261.01124634 339.84163086 260.36917236 339.47134766 259.7076416 339.08984375 C258.13985709 338.18521239 256.57411005 337.2770515 255.00878906 336.36816406 C255.16959961 337.31095215 255.33041016 338.25374023 255.49609375 339.22509766 C258.457166 356.66664385 261.2661919 374.11443823 263.38378906 391.68066406 C263.51134583 392.69963776 263.51134583 392.69963776 263.64147949 393.73919678 C264.56156466 401.15239644 265.20909217 408.56939405 265.42285156 416.03613281 C265.46619629 417.32156982 265.50954102 418.60700684 265.55419922 419.93139648 C264.86723987 424.26010142 263.37121747 425.66117489 260.00878906 428.36816406 C256.94136332 429.71188378 254.31151699 429.9028384 251.00878906 429.36816406 C247.81901588 427.54904589 245.50571463 425.03460568 243.00878906 422.36816406 C221.02394061 399.32248266 194.80043602 384.70565815 164.46972656 375.60644531 C159.25230687 373.91615766 157.0394972 371.7764668 154.00878906 367.36816406 C152.99989929 364.34149473 152.95850351 362.66441512 153.12988281 359.52832031 C153.17846436 358.55846191 153.2270459 357.58860352 153.27709961 356.58935547 C153.33293213 355.5469873 153.38876465 354.50461914 153.44628906 353.43066406 C155.50930948 308.85480584 150.55482156 265.02347389 134.49780273 223.12988281 C134.17271729 222.28167969 133.84763184 221.43347656 133.51269531 220.55957031 C133.22209229 219.81908447 132.93148926 219.07859863 132.63208008 218.31567383 C132.00878906 216.36816406 132.00878906 216.36816406 132.00878906 213.36816406 C125.73878906 213.69816406 119.46878906 214.02816406 113.00878906 214.36816406 C95.76092837 256.60782289 87.72445473 301.99987863 90.34082031 347.60644531 C90.42710693 349.1579126 90.42710693 349.1579126 90.51513672 350.74072266 C90.63319305 352.73813401 90.76625232 354.73473265 90.91650391 356.72998047 C91.31783961 363.38085453 90.42392499 367.13842172 86.36425781 372.56738281 C82.97215907 375.16067887 79.39615012 376.03996342 75.32128906 377.18066406 C46.97543747 385.671132 21.79303853 400.17022227 1.55175781 422.02050781 C-4.76677596 428.83419074 -4.76677596 428.83419074 -9.17871094 429.61816406 C-13.28690462 429.34877431 -15.5791062 428.64290055 -18.99121094 426.36816406 C-24.54172613 418.04239127 -20.54409619 401.09007571 -19.36621094 391.68066406 C-19.23865417 390.6225351 -19.23865417 390.6225351 -19.10852051 389.54302979 C-16.95931443 371.73454377 -14.00669551 354.04712221 -10.99121094 336.36816406 C-11.49982666 336.66062012 -12.00844238 336.95307617 -12.5324707 337.25439453 C-14.86851847 338.59177989 -17.21098856 339.91750822 -19.55371094 341.24316406 C-20.75350586 341.93345703 -20.75350586 341.93345703 -21.97753906 342.63769531 C-30.86570335 347.64408989 -39.40791711 350.08015009 -49.56933594 347.78613281 C-56.79231267 345.29897573 -61.64864516 340.67212748 -66.99121094 335.36816406 C-68.05824686 334.33751954 -69.12598841 333.30760519 -70.19433594 332.27832031 C-76.97158854 325.69023259 -83.25916196 318.90036065 -88.99121094 311.36816406 C-89.70978271 310.43157959 -89.70978271 310.43157959 -90.44287109 309.47607422 C-109.84185176 284.02359663 -137.23061435 242.80046854 -133.99121094 209.36816406 C-129.82361561 193.83200172 -111.54609213 183.55705551 -98.53857422 175.99975586 C-91.17687364 171.81723659 -83.61671178 168.04236231 -75.99121094 164.36816406 C-78.54601001 162.66496468 -80.86705245 161.44594501 -83.64746094 160.18847656 C-93.57710099 155.62135752 -103.25069251 150.9152791 -112.49121094 145.05566406 C-113.24853516 144.57693848 -114.00585938 144.09821289 -114.78613281 143.60498047 C-127.49138878 135.34884716 -127.49138878 135.34884716 -130.86621094 128.68066406 C-131.25550781 127.93429688 -131.64480469 127.18792969 -132.04589844 126.41894531 C-138.93336343 111.47713076 -131.17046365 93.61601982 -125.99121094 79.36816406 C-114.06879363 47.56052722 -89.8221122 -4.04783976 -57.17871094 -20.00683594 C-36.63865385 -24.03429811 -16.4257035 -10.90499807 0 0 Z " fill="#010202" transform="translate(133.9912109375,51.6318359375)"/>
<path d="M0 0 C0.93457031 0.47308594 1.86914062 0.94617188 2.83203125 1.43359375 C6.43375274 3.25122836 10.0461956 5.04671575 13.66162109 6.83691406 C15.15693107 7.58066607 16.6497164 8.32952975 18.13916016 9.08496094 C49.66372006 25.05623134 84.25401778 35.07895415 119 41 C119.95003906 41.16371094 120.90007812 41.32742188 121.87890625 41.49609375 C140.36191103 44.57235727 159.38305521 45.43000121 178 43 C175.95924801 50.80179379 172.95839471 57.8829569 169.4375 65.125 C168.63795898 66.77423462 168.63795898 66.77423462 167.82226562 68.45678711 C156.41359686 91.62937072 140.7019898 112.34997054 122.5625 130.6875 C121.97098145 131.28836426 121.37946289 131.88922852 120.77001953 132.50830078 C120.20782715 133.06630371 119.64563477 133.62430664 119.06640625 134.19921875 C118.57084229 134.69252686 118.07527832 135.18583496 117.56469727 135.6940918 C113.68284898 138.93391181 109.97326977 139.68189324 105.01953125 139.55859375 C80.74679636 135.0682948 55.54664944 108.92222412 39.9609375 91.1171875 C37.50877726 88.469636 36.66547529 88.05663619 33.0625 87.75 C30.08755559 87.77674522 30.08755559 87.77674522 28.125 89.0625 C26.3361802 92.14324521 26.64897364 94.49704941 27 98 C28.5790485 100.27250896 29.93387686 101.91612249 31.875 103.8125 C32.37241699 104.32385498 32.86983398 104.83520996 33.38232422 105.36206055 C34.40931603 106.4129927 35.44404923 107.45641472 36.48632812 108.4921875 C37.89116891 109.89159019 39.26723219 111.3197211 40.640625 112.75 C44.52442281 116.75592982 47.99119668 120.00737807 52.8125 122.8125 C60.17687856 128.44256094 60.48982408 139.46867171 62 148 C62.4347695 150.32684653 62.86967009 152.65366856 63.3046875 154.98046875 C65.44281156 166.69339681 67.29884107 178.43994021 68.8125 190.25 C68.93641113 191.20688721 69.06032227 192.16377441 69.18798828 193.1496582 C69.87260827 198.80962038 70.11052918 204.29902116 70 210 C66.18948055 208.21135772 63.31471709 205.7740827 60.1875 203 C40.91821465 186.36134319 18.3356011 175.53785126 -6.07299805 168.62426758 C-8 168 -8 168 -9 167 C-9.08251106 165.65850858 -9.09643291 164.31269673 -9.08178711 162.96875 C-9.07535187 162.10768143 -9.06891663 161.24661285 -9.06228638 160.35945129 C-9.05075531 159.41583237 -9.03922424 158.47221344 -9.02734375 157.5 C-9.0128636 155.48918042 -8.99897046 153.47835654 -8.9855957 151.4675293 C-8.97726715 150.41044769 -8.9689386 149.35336609 -8.96035767 148.26425171 C-8.79191117 124.20878807 -9.28859392 100.66511273 -14 77 C-14.16870605 76.1322998 -14.33741211 75.26459961 -14.51123047 74.37060547 C-17.95577195 56.87135147 -22.31391381 39.47925051 -29.24584961 23.00708008 C-30 21 -30 21 -30 19 C-25.38 18.67 -20.76 18.34 -16 18 C-13.9312753 23.09224541 -11.93065735 28.18562581 -10.08032227 33.36157227 C-7.40036139 40.77436816 -4.30176831 47.93416805 -0.9375 55.0625 C-0.52612793 55.94268799 -0.11475586 56.82287598 0.30908203 57.72973633 C2.78214441 62.88416563 5.34272977 67.58646065 9 72 C12.61078242 72.62254869 14.70209577 72.71175393 17.9375 70.9375 C19.6018602 67.90249022 19.25263595 65.4123644 19 62 C17.63058461 59.03799078 17.63058461 59.03799078 15.625 56.125 C8.06143994 43.87134196 -4.36618254 21.16813253 -2.70703125 6.390625 C-2.02382593 4.08056061 -1.1680201 2.10243617 0 0 Z " fill="#25A5FD" transform="translate(312,245)"/>
<path d="M0 0 C27.29236227 0.47278108 55.41260702 28.05119188 74.1875 45.3125 C74.96996094 46.0034375 75.75242188 46.694375 76.55859375 47.40625 C86.38611 56.08591236 95.7161235 65.30087323 104.1875 75.3125 C105.05503906 76.29089844 105.92257813 77.26929687 106.81640625 78.27734375 C131.1875 105.90088694 131.1875 105.90088694 131.1875 113.3125 C129.359375 114.7421875 129.359375 114.7421875 126.9375 116.1875 C120.4337494 120.34663832 117.13270957 124.87719238 115.1875 132.3125 C114.69383645 135.63998221 114.38700716 138.95527602 114.1875 142.3125 C98.73080621 134.54326238 85.23683387 123.01727264 72.53125 111.4375 C70.38057289 109.48755276 68.19925029 107.58223871 66 105.6875 C62.71649447 102.83691102 59.65020295 99.82497794 56.6328125 96.6953125 C54.28248148 94.44661741 53.08410856 94.30310078 49.75 94 C46.22223996 93.97417835 46.22223996 93.97417835 44.1875 95.9375 C42.76458184 99.31693064 43.10546212 100.78142217 44.1875 104.3125 C46.38743499 107.18628895 48.94465713 109.63360723 51.5625 112.125 C52.29275391 112.83567627 53.02300781 113.54635254 53.77539062 114.27856445 C58.43720514 118.76941154 63.2070197 123.05634006 68.3046875 127.05078125 C70.51473186 128.78467784 72.67289855 130.54668119 74.8203125 132.35546875 C85.63875799 141.41804792 97.06321889 149.10855822 109.1875 156.3125 C106.50131855 159.89407526 102.83562989 160.41106478 98.6875 161.3125 C98.04941406 161.46460938 97.41132813 161.61671875 96.75390625 161.7734375 C94.24063684 162.34442236 91.72030257 162.83455504 89.1875 163.3125 C88.54253571 163.43569611 87.89757141 163.55889221 87.23306274 163.68582153 C74.72886637 166.02234403 62.58241683 166.84098141 49.875 166.75 C48.98085388 166.74729095 48.08670776 166.74458191 47.16546631 166.74179077 C33.45257425 166.6789325 20.51053795 165.73898715 7.1875 162.3125 C5.57880198 161.94364946 3.96941668 161.57778425 2.359375 161.21484375 C-20.62219697 155.82933854 -54.69792767 144.42309988 -69.125 124.5 C-71.54330356 116.80539776 -68.65031385 109.28698552 -66.3125 101.9375 C-65.94938721 100.78354736 -65.58627441 99.62959473 -65.2121582 98.44067383 C-62.07492198 88.70500774 -58.36802681 79.46280849 -53.8125 70.3125 C-53.39597168 69.46848633 -52.97944336 68.62447266 -52.55029297 67.75488281 C-43.40454993 49.36976572 -32.70670931 30.70584209 -17.8125 16.3125 C-17.55597656 16.98152344 -17.29945312 17.65054688 -17.03515625 18.33984375 C-8.38585787 40.03589525 4.53355021 59.26668051 19.359375 77.22265625 C19.82698242 77.78992432 20.29458984 78.35719238 20.77636719 78.94165039 C22.27603752 80.58715042 22.27603752 80.58715042 25.3125 81.4375 C28.16653411 81.47011519 28.16653411 81.47011519 30.5625 80.375 C32.52996616 77.87783141 33.11677783 75.90627876 32.94921875 72.72265625 C31.73441454 68.87889114 29.17107046 66.26774521 26.52124023 63.29248047 C12.62530711 47.68809007 -5.6489046 23.05901971 -4.8125 1.3125 C-3.8125 0.3125 -3.8125 0.3125 0 0 Z " fill="#25A5FC" transform="translate(84.8125,46.6875)"/>
<path d="M0 0 C23.74860427 22.69894221 39.41117348 56.07566625 49 87 C49.35835937 88.13308594 49.71671875 89.26617187 50.0859375 90.43359375 C52.35853845 98.11665291 53.02517487 103.79413159 49.26049805 111.0402832 C47.30448884 114.0813225 44.71195859 115.89836609 41.6875 117.75 C41.04578857 118.15774658 40.40407715 118.56549316 39.74291992 118.9855957 C24.71213126 128.31172789 9.14701467 136.00483917 -7.7421875 141.28271484 C-9.86535899 141.95722585 -11.96332991 142.68043124 -14.0625 143.42578125 C-31.57751154 149.52963075 -49.16847274 150.28593536 -67.5625 150.375 C-68.42197235 150.38294586 -69.2814447 150.39089172 -70.16696167 150.39907837 C-86.39684818 150.51413732 -102.56537164 149.08746685 -118.1875 144.4375 C-118.94740234 144.22931641 -119.70730469 144.02113281 -120.49023438 143.80664062 C-122.34847977 143.27499912 -124.17869215 142.6469593 -126 142 C-126.33 141.34 -126.66 140.68 -127 140 C-125.47632813 139.07380859 -125.47632813 139.07380859 -123.921875 138.12890625 C-115.26836351 132.82503892 -106.97001227 127.30418993 -99 121 C-98.38656738 120.51660156 -97.77313477 120.03320312 -97.14111328 119.53515625 C-84.07355639 109.20221997 -72.03998722 98.11146802 -60.21295166 86.38717651 C-58.79524635 84.98233577 -57.37399824 83.58107306 -55.95263672 82.17993164 C-49.86311557 76.09752058 -44.36594907 69.72305082 -39 63 C-38.11340379 61.94879677 -37.22157592 60.90193679 -36.3203125 59.86328125 C-22.80381135 44.15816514 -11.36893627 26.50341479 -3.41015625 7.36328125 C-2.35432145 4.84507137 -1.26596021 2.41572118 0 0 Z " fill="#25A5FD" transform="translate(445,63)"/>
<path d="M0 0 C2.52454268 2.96359358 3.78716477 5.08164877 4 9 C3.38009485 12.03899113 2.42668729 14.93825852 1.4375 17.875 C1.16083496 18.71780518 0.88416992 19.56061035 0.59912109 20.42895508 C-7.86050407 45.81022979 -19.98915632 68.34975237 -37 89 C-37.57621094 89.71929687 -38.15242187 90.43859375 -38.74609375 91.1796875 C-41.72437589 94.81173889 -44.988523 97.90702231 -48.5703125 100.94140625 C-50.39700754 102.48910446 -52.20054946 104.06419462 -53.9921875 105.65234375 C-92.64558419 139.78149706 -92.64558419 139.78149706 -109 139.58984375 C-114.78389194 138.45264625 -118.08968114 134.14602587 -122 130 C-122.88558594 129.15695312 -123.77117187 128.31390625 -124.68359375 127.4453125 C-131.91749741 120.52949538 -138.02685494 113.00506538 -144 105 C-144.42667969 104.43410156 -144.85335937 103.86820312 -145.29296875 103.28515625 C-177 61.04163462 -177 61.04163462 -177 43 C-175.75734375 43.15855469 -174.5146875 43.31710937 -173.234375 43.48046875 C-136.07302825 47.55721041 -97.08604874 38.7765123 -62 27 C-60.99904297 26.66629395 -59.99808594 26.33258789 -58.96679688 25.98876953 C-38.55592813 19.10924196 -18.71497533 10.70993705 0 0 Z " fill="#25A5FD" transform="translate(199,245)"/>
<path d="M0 0 C1.12744141 1.85986328 1.12744141 1.85986328 1.8515625 4.3203125 C2.13990967 5.23748047 2.42825684 6.15464844 2.7253418 7.09960938 C3.022229 8.09798828 3.31911621 9.09636719 3.625 10.125 C6.44042994 18.8813531 9.69381126 27.21184826 13.6875 35.5 C14.13883301 36.44762207 14.59016602 37.39524414 15.05517578 38.37158203 C17.61964069 43.61429999 20.20002694 48.54738309 24 53 C26.12602137 53.29567348 26.12602137 53.29567348 28.25 53.125 C30.578125 53.17578125 30.578125 53.17578125 33 54 C37.13611294 58.53576803 42.28403894 64.72042483 43 71 C42.67 71.33 42.34 71.66 42 72 C41.50642481 76.30040514 41.55085454 78.35360626 44.0546875 81.95703125 C44.97674652 82.92634538 45.91805312 83.8776121 46.875 84.8125 C47.37241699 85.32385498 47.86983398 85.83520996 48.38232422 86.36206055 C49.40931603 87.4129927 50.44404923 88.45641472 51.48632812 89.4921875 C52.89116891 90.89159019 54.26723219 92.3197211 55.640625 93.75 C59.52442281 97.75592982 62.99119668 101.00737807 67.8125 103.8125 C75.17687856 109.44256094 75.48982408 120.46867171 77 129 C77.4347695 131.32684653 77.86967009 133.65366856 78.3046875 135.98046875 C80.44281156 147.69339681 82.29884107 159.43994021 83.8125 171.25 C83.93641113 172.20688721 84.06032227 173.16377441 84.18798828 174.1496582 C84.87260827 179.80962038 85.11052918 185.29902116 85 191 C81.18948055 189.21135772 78.31471709 186.7740827 75.1875 184 C55.91821465 167.36134319 33.3356011 156.53785126 8.92700195 149.62426758 C7 149 7 149 6 148 C5.91748894 146.65850858 5.90356709 145.31269673 5.91821289 143.96875 C5.92464813 143.10768143 5.93108337 142.24661285 5.93771362 141.35945129 C5.94924469 140.41583237 5.96077576 139.47221344 5.97265625 138.5 C5.9871364 136.48918042 6.00102954 134.47835654 6.0144043 132.4675293 C6.02273285 131.41044769 6.0310614 130.35336609 6.03964233 129.26425171 C6.20808883 105.20878807 5.71140608 81.66511273 1 58 C0.83129395 57.1322998 0.66258789 56.26459961 0.48876953 55.37060547 C-2.95577195 37.87135147 -7.31391381 20.47925051 -14.24584961 4.00708008 C-15 2 -15 2 -15 0 C-13.43867691 -0.1970602 -11.87584736 -0.38220155 -10.3125 -0.5625 C-9.44238281 -0.66691406 -8.57226562 -0.77132813 -7.67578125 -0.87890625 C-4.81506747 -1.00836921 -2.73249002 -0.86778151 0 0 Z " fill="#88C7FB" transform="translate(297,264)"/>
<path d="M0 0 C27.29236227 0.47278108 55.41260702 28.05119188 74.1875 45.3125 C74.96996094 46.0034375 75.75242187 46.694375 76.55859375 47.40625 C86.38611 56.08591236 95.7161235 65.30087323 104.1875 75.3125 C105.05503906 76.29089844 105.92257813 77.26929687 106.81640625 78.27734375 C131.1875 105.90088694 131.1875 105.90088694 131.1875 113.3125 C129.359375 114.7421875 129.359375 114.7421875 126.9375 116.1875 C120.4337494 120.34663832 117.13270957 124.87719238 115.1875 132.3125 C114.69383645 135.63998221 114.38700716 138.95527602 114.1875 142.3125 C98.73080621 134.54326238 85.23683387 123.01727264 72.53125 111.4375 C70.38057289 109.48755276 68.19925029 107.58223871 66 105.6875 C62.71649447 102.83691102 59.65020295 99.82497794 56.6328125 96.6953125 C55.21640223 95.20395515 55.21640223 95.20395515 53.1875 94.3125 C52.19943359 94.47298828 52.19943359 94.47298828 51.19140625 94.63671875 C46.46827752 95.3395203 44.01347826 94.90990566 40.08203125 92.06640625 C36.20828796 88.42974249 32.45791043 84.73686934 31.84765625 79.265625 C32.03454895 77.27561261 32.2260516 75.28602844 32.421875 73.296875 C32.01852434 68.1608766 28.4642652 65.18943175 25.109375 61.56640625 C11.5067293 46.85752129 -5.60700791 21.96970575 -4.8125 1.3125 C-3.8125 0.3125 -3.8125 0.3125 0 0 Z " fill="#B1D8FC" transform="translate(84.8125,46.6875)"/>
<path d="M0 0 C6.93 0.495 6.93 0.495 14 1 C12.65450942 5.63446757 11.28153238 10.24163592 9.67578125 14.79296875 C1.53928737 38.00582699 -3.81007487 62.49070565 -6 87 C-6.09047607 87.99249756 -6.18095215 88.98499512 -6.27416992 90.00756836 C-7.23543854 102.14432708 -7.1113089 114.27119012 -7.0625 126.4375 C-7.05747269 128.63346252 -7.05291197 130.82942615 -7.04882812 133.02539062 C-7.03792534 138.35028528 -7.02128574 143.67513724 -7 149 C-7.60541122 149.20119949 -8.21082245 149.40239899 -8.83457947 149.60969543 C-10.03589256 150.00942818 -10.03589256 150.00942818 -11.26147461 150.41723633 C-12.44802895 150.81184807 -12.44802895 150.81184807 -13.65855408 151.21443176 C-25.62389074 155.22886931 -36.86675386 160.07268247 -48 166 C-48.90878906 166.47542236 -48.90878906 166.47542236 -49.8359375 166.96044922 C-62.35477702 173.55129022 -73.05237284 182.06863964 -83.42578125 191.63671875 C-85 193 -85 193 -86 193 C-86.31774873 183.84883671 -85.10847149 175.02923633 -83.8125 166 C-83.70117737 165.21052979 -83.58985474 164.42105957 -83.47515869 163.60766602 C-81.45423206 149.31216287 -79.0609369 135.11371064 -76 121 C-75.79834229 119.94731934 -75.59668457 118.89463867 -75.38891602 117.81005859 C-73.96430525 111.06211961 -72.8093332 107.68713842 -67.1875 103.625 C-66.01241255 102.72330092 -64.84200548 101.81547725 -63.67578125 100.90234375 C-63.07072754 100.43554199 -62.46567383 99.96874023 -61.84228516 99.48779297 C-32.70117932 75.95401362 -14.69962755 40.25362876 -2.34765625 5.71875 C-1 2 -1 2 0 0 Z " fill="#B1D8FC" transform="translate(216,263)"/>
<path d="M0 0 C0.77859375 -0.00257812 1.5571875 -0.00515625 2.359375 -0.0078125 C4.25 0.125 4.25 0.125 5.25 1.125 C5.60053277 6.87123363 4.88902319 11.37851032 2.75 16.75 C2.34624146 17.78640625 2.34624146 17.78640625 1.93432617 18.84375 C-4.88305691 35.74884754 -16.085867 51.22870646 -27.75 65.125 C-28.59175781 66.13949219 -29.43351562 67.15398437 -30.30078125 68.19921875 C-44.18152037 84.84515442 -58.99718981 101.71921297 -76.140625 115.0703125 C-78.57464241 116.98691903 -80.8981247 118.99771949 -83.22167969 121.0456543 C-88.96120032 126.06729443 -94.97675523 130.50473909 -101.3125 134.75 C-102.0866626 135.27118408 -102.8608252 135.79236816 -103.65844727 136.3293457 C-107.0253438 138.54272386 -109.75797041 140.32116124 -113.75 141.125 C-113.83636719 140.279375 -113.92273438 139.43375 -114.01171875 138.5625 C-115.04251648 130.2404633 -116.32635535 123.9967504 -122.78515625 118.34375 C-125.34626518 116.37295112 -127.85721116 114.57139442 -130.75 113.125 C-129.31295997 103.68159408 -118.69563021 93.27494582 -112.75 86.125 C-111.94046875 85.14144531 -111.1309375 84.15789062 -110.296875 83.14453125 C-97.89190739 68.1935357 -84.54569961 53.73525672 -69.75 41.125 C-68.72177755 40.22235413 -67.6945145 39.31861476 -66.66796875 38.4140625 C-22.75803386 -0.07636924 -22.75803386 -0.07636924 0 0 Z " fill="#B1D8FC" transform="translate(426.75,46.875)"/>
<path d="M0 0 C0.99569504 -0.01007584 0.99569504 -0.01007584 2.01150513 -0.02035522 C4.20655807 -0.03935631 6.40130547 -0.04326073 8.59643555 -0.04541016 C10.12477239 -0.05183777 11.653108 -0.05856611 13.18144226 -0.06558228 C16.38677827 -0.07756111 19.59200647 -0.0812626 22.79736328 -0.08007812 C26.89648004 -0.07987516 30.99490173 -0.10715069 35.09385395 -0.14162254 C38.25181729 -0.16390936 41.40961401 -0.1679151 44.56764793 -0.16685867 C46.07827329 -0.16921298 47.58890336 -0.17802699 49.09945107 -0.19352341 C51.21783022 -0.2132164 53.33471963 -0.20733386 55.453125 -0.1953125 C56.6565303 -0.19816254 57.85993561 -0.20101257 59.09980774 -0.20394897 C63.12372505 0.39521506 65.26761937 1.76163809 68.4206543 4.29052734 C70.72053418 7.74034718 70.68190144 9.06854729 70.71118164 13.13549805 C70.72394135 14.33717117 70.73670105 15.5388443 70.74984741 16.77693176 C70.75207306 18.07692612 70.75429871 19.37692047 70.7565918 20.71630859 C70.76302062 22.06528363 70.76974904 23.41425726 70.77676392 24.76322937 C70.78873939 27.59194163 70.79244462 30.42053176 70.79125977 33.24926758 C70.79105686 36.86414966 70.81832639 40.47824299 70.85280418 44.09293842 C70.87510818 46.88032078 70.87909622 49.6675146 70.87804031 52.45497704 C70.88153205 54.43247171 70.90317852 56.40990753 70.92514038 58.38728333 C70.867339 69.76417573 70.867339 69.76417573 66.4206543 74.29052734 C62.90894628 76.58428898 59.84759244 76.5548204 55.71191406 76.58105469 C54.71359055 76.59113052 54.71359055 76.59113052 53.69509888 76.60140991 C51.5006763 76.62036752 49.30655985 76.62431272 47.11206055 76.62646484 C45.58275732 76.63289369 44.05345532 76.63962212 42.52415466 76.64663696 C39.32059884 76.65860363 36.11715081 76.66231836 32.91357422 76.66113281 C28.81326775 76.6609295 24.71365347 76.68824576 20.61351109 76.72267723 C17.4555902 76.74493821 14.29783621 76.74897063 11.13984489 76.74791336 C9.62839304 76.75026999 8.11693662 76.75909713 6.60556221 76.77457809 C4.48948063 76.79422603 2.37489593 76.78840703 0.25878906 76.77636719 C-0.94382065 76.77921722 -2.14643036 76.78206726 -3.38548279 76.78500366 C-7.25045348 76.18662592 -8.84818423 75.04905296 -11.5793457 72.29052734 C-13.82029317 69.04148903 -13.84187682 66.207693 -13.86987305 62.31616211 C-13.88263275 61.11133682 -13.89539246 59.90651154 -13.90853882 58.66517639 C-13.91076447 57.36720627 -13.91299011 56.06923615 -13.9152832 54.73193359 C-13.92171342 53.38199218 -13.92844195 52.03205216 -13.93545532 50.68211365 C-13.94741702 47.85518157 -13.95113723 45.02837161 -13.94995117 42.20141602 C-13.94974788 38.58534453 -13.9770636 34.97005812 -14.01149559 31.35417271 C-14.03377027 28.56683276 -14.03778859 25.77968172 -14.03673172 22.99226189 C-14.04022822 21.01305702 -14.06188526 19.0339111 -14.08383179 17.05482483 C-14.07767853 15.84684738 -14.07152527 14.63886993 -14.06518555 13.39428711 C-14.06803558 12.33379654 -14.07088562 11.27330597 -14.07382202 10.18067932 C-13.45274683 6.55057282 -12.10913065 4.92161464 -9.5793457 2.29052734 C-5.96971559 -0.11589273 -4.2953837 0.02726542 0 0 Z " fill="#D7EBFD" transform="translate(227.579345703125,172.70947265625)"/>
<path d="M0 0 C5.08864333 0.85184338 10.1493294 1.78657645 15.17578125 2.953125 C15.91973145 3.12489258 16.66368164 3.29666016 17.43017578 3.47363281 C18.87160099 3.8097471 20.3115699 4.15221217 21.74951172 4.50292969 C35.86644641 7.78623778 50.01094739 8.39976691 64.4375 8.375 C65.30664032 8.3764502 66.17578064 8.37790039 67.07125854 8.37939453 C80.0953117 8.3770046 92.45492583 7.44877653 105.25390625 4.875 C113.59680516 3.26053368 118.99022554 4.38331559 126.625 7.8125 C127.99120483 8.4149353 127.99120483 8.4149353 129.38500977 9.02954102 C175.80462038 29.83173975 175.80462038 29.83173975 184 46 C184.25 48.75 184.25 48.75 183 51 C174.31953391 55.88276217 164.63425219 56.36366061 154.875 56.3125 C153.73409912 56.30686035 152.59319824 56.3012207 151.41772461 56.29541016 C122.60596344 55.89211338 94.33716993 48.65902921 67 40 C66.14921875 39.73106934 65.2984375 39.46213867 64.421875 39.18505859 C43.4140983 32.43432846 22.83104055 23.54647615 4 12 C3.18660156 11.50886719 2.37320312 11.01773438 1.53515625 10.51171875 C0 9 0 9 -0.390625 6.73828125 C-0.34421875 5.93777344 -0.2978125 5.13726562 -0.25 4.3125 C-0.21390625 3.50425781 -0.1778125 2.69601563 -0.140625 1.86328125 C-0.09421875 1.24839844 -0.0478125 0.63351563 0 0 Z " fill="#B1D8FB" transform="translate(313,219)"/>
<path d="M0 0 C0.72075007 3.21061395 0.87499694 5.80702872 0 9 C-3.18202788 12.16226373 -7.02314817 13.98674698 -11 16 C-12.22044689 16.64247976 -13.44048693 17.28573285 -14.66015625 17.9296875 C-18.73023326 20.04527799 -22.85771125 22.03049512 -27 24 C-27.65226563 24.31549805 -28.30453125 24.63099609 -28.9765625 24.95605469 C-68.10749346 43.76150707 -112.50880151 55.86281257 -156 56.3125 C-157.53962402 56.33908691 -157.53962402 56.33908691 -159.11035156 56.36621094 C-167.80615227 56.35776021 -176.77335432 55.23308825 -184 50 C-183.71366825 44.13019903 -181.1240572 40.88553897 -177 37 C-161.9455347 23.8716207 -131.69836704 2.7670699 -111.10850525 3.78060913 C-108.37171465 4.06537336 -105.78542622 4.81025652 -103.1265564 5.49603271 C-99.83127212 6.2769739 -96.50433031 6.7173083 -93.14453125 7.1015625 C-92.4150679 7.18524078 -91.68560455 7.26891907 -90.93403625 7.35513306 C-82.5255032 8.24884877 -74.13697415 8.39443897 -65.6875 8.375 C-64.46232666 8.37518127 -64.46232666 8.37518127 -63.21240234 8.37536621 C-44.06440447 8.33537379 -24.74151515 6.85669322 -6.46875 0.734375 C-4 0 -4 0 0 0 Z " fill="#B1D7FB" transform="translate(199,219)"/>
<path d="M0 0 C6.93 0.495 6.93 0.495 14 1 C12.65450942 5.63446757 11.28153238 10.24163592 9.67578125 14.79296875 C1.53928737 38.00582699 -3.81007487 62.49070565 -6 87 C-6.09047607 87.99249756 -6.18095215 88.98499512 -6.27416992 90.00756836 C-7.23543854 102.14432708 -7.1113089 114.27119012 -7.0625 126.4375 C-7.05747269 128.63346252 -7.05291197 130.82942615 -7.04882812 133.02539062 C-7.03792534 138.35028528 -7.02128574 143.67513724 -7 149 C-7.60541122 149.20119949 -8.21082245 149.40239899 -8.83457947 149.60969543 C-10.03589256 150.00942818 -10.03589256 150.00942818 -11.26147461 150.41723633 C-12.44802895 150.81184807 -12.44802895 150.81184807 -13.65855408 151.21443176 C-25.62389074 155.22886931 -36.86675386 160.07268247 -48 166 C-48.90878906 166.47542236 -48.90878906 166.47542236 -49.8359375 166.96044922 C-62.35477702 173.55129022 -73.05237284 182.06863964 -83.42578125 191.63671875 C-85 193 -85 193 -86 193 C-86.11269443 186.8894576 -85.89604368 181.04829486 -85 175 C-84.67 175.66 -84.34 176.32 -84 177 C-82.89785156 176.35933594 -81.79570312 175.71867188 -80.66015625 175.05859375 C-66.98520524 167.21761951 -53.23955541 160.99175817 -38.08740234 156.59643555 C-34.97450285 155.68586224 -32.73028872 154.82019248 -30 153 C-29.57452569 150.46226535 -29.57452569 150.46226535 -29.69116211 147.45898438 C-29.69784409 146.29596802 -29.70452606 145.13295166 -29.71141052 143.93469238 C-29.73316849 142.6671814 -29.75492645 141.39967041 -29.77734375 140.09375 C-29.79108752 138.09302677 -29.80481897 136.09230338 -29.81788731 134.09157562 C-29.83978819 131.27245302 -29.8749877 128.45356068 -29.9105835 125.63458252 C-29.98877613 119.43360548 -30.05234136 113.23261258 -30.08984375 107.03125 C-30.09400551 106.36687298 -30.09816727 105.70249596 -30.10245514 105.0179863 C-30.15206677 94.52163043 -29.59510551 84.37562635 -28 74 C-27.79998566 72.63877663 -27.60068389 71.27744836 -27.40209961 69.91601562 C-26.95900657 66.93934986 -26.49304018 63.96873128 -26 61 C-26.99 61.66 -27.98 62.32 -29 63 C-27.48945359 58.77679694 -25.31144681 55.15092777 -22.9375 51.375 C-13.79378259 36.40190715 -7.4136209 20.49208257 -1.70507812 3.94506836 C-1 2 -1 2 0 0 Z " fill="#88C6FA" transform="translate(216,263)"/>
<path d="M0 0 C3.63913742 3.44827357 6.48148514 6.95172019 9.25 11.125 C19.32758779 26.00515527 31.68918329 39.37657107 44.8125 51.625 C49.79491003 57.03447375 50.84681089 63.18237119 52.0625 70.1875 C52.23168945 71.127146 52.40087891 72.06679199 52.57519531 73.03491211 C52.90693724 74.87850877 53.23566968 76.72265013 53.56103516 78.56738281 C54.07397107 81.40992644 54.66522153 84.23399705 55.25 87.0625 C56.28181425 92.69222338 56.17916698 98.29651766 56 104 C51.1902637 102.60480932 47.19216764 100.44387643 42.9375 97.875 C31.08110385 90.95853395 18.10196645 86.36402211 4.92919922 82.62646484 C3 82 3 82 2 81 C1.91748894 79.65850858 1.90356709 78.31269673 1.91821289 76.96875 C1.92466324 76.10772675 1.93111359 75.24670349 1.9377594 74.35958862 C1.94927536 73.41592438 1.96079132 72.47226013 1.97265625 71.5 C1.98685517 69.48844766 2.00050573 67.47689139 2.01367188 65.46533203 C2.02197021 64.40815979 2.03026855 63.35098755 2.03881836 62.26177979 C2.1629361 45.16648007 1.98511745 28.34326982 0.1875 11.32910156 C-0.1170683 7.54579217 -0.06131002 3.79355769 0 0 Z " fill="#B1D8FC" transform="translate(301,331)"/>
<path d="M0 0 C23.74860427 22.69894221 39.41117348 56.07566625 49 87 C49.35835938 88.13308594 49.71671875 89.26617187 50.0859375 90.43359375 C52.35853845 98.11665291 53.02517487 103.79413159 49.26049805 111.0402832 C47.30448884 114.0813225 44.71195859 115.89836609 41.6875 117.75 C40.72493286 118.36161987 40.72493286 118.36161987 39.74291992 118.9855957 C24.73791777 128.29572817 9.19238915 135.99184693 -7.66748047 141.26513672 C-10.00910284 142.00286786 -12.33456856 142.77973083 -14.66015625 143.56640625 C-16.10632944 144.04560499 -17.55292296 144.52353766 -19 145 C-19.65282959 145.22034912 -20.30565918 145.44069824 -20.97827148 145.66772461 C-24.44278605 146.7675339 -26.5462401 147.04886418 -30 146 C-29.39752441 145.74943848 -28.79504883 145.49887695 -28.17431641 145.24072266 C3.6222163 133.42917452 3.6222163 133.42917452 27.09399414 110.71630859 C30.17168315 101.48904695 27.60388824 91.6120084 24.6875 82.6875 C24.15769531 81.02013794 24.15769531 81.02013794 23.6171875 79.3190918 C19.70417304 67.43633592 14.57907338 56.18129645 9 45 C8.62311035 44.24058105 8.2462207 43.48116211 7.85791016 42.69873047 C5.0928334 37.18262584 2.32904112 31.69783606 -1.375 26.7421875 C-7.0128782 19.14248007 -7.0128782 19.14248007 -6.97265625 15.57421875 C-6.20994647 13.18714328 -5.21919333 11.18749157 -4 9 C-3.26128557 7.31665771 -2.53186791 5.62920035 -1.8125 3.9375 C-1.21257432 2.62305609 -0.61000081 1.3097987 0 0 Z " fill="#0591F8" transform="translate(445,63)"/>
<path d="M0 0 C3.78528529 5.04704705 3.78528529 5.04704705 4 9 C3.38009485 12.03899113 2.42668729 14.93825852 1.4375 17.875 C1.16083496 18.71780518 0.88416992 19.56061035 0.59912109 20.42895508 C-7.86050407 45.81022979 -19.98915632 68.34975237 -37 89 C-37.57621094 89.71929687 -38.15242188 90.43859375 -38.74609375 91.1796875 C-41.72437589 94.81173889 -44.988523 97.90702231 -48.5703125 100.94140625 C-50.39700754 102.48910446 -52.20054946 104.06419462 -53.9921875 105.65234375 C-92.02356625 139.23228411 -92.02356625 139.23228411 -106.625 139.0625 C-107.62789063 139.05347656 -108.63078125 139.04445313 -109.6640625 139.03515625 C-110.82035156 139.01775391 -110.82035156 139.01775391 -112 139 C-112 138.01 -112 137.02 -112 136 C-110.015625 134.4921875 -110.015625 134.4921875 -107.25 132.875 C-97.53921534 126.93648169 -88.85656438 120.09490476 -80.53125 112.34375 C-78.31517223 110.29182614 -76.05494366 108.32533694 -73.75 106.375 C-49.1751619 84.95901908 -33.83165082 53.07296842 -23 23 C-22.59523438 21.93007813 -22.19046875 20.86015625 -21.7734375 19.7578125 C-20.72996541 16.51451877 -20.72996541 16.51451877 -21 11 C-10.605 5.555 -10.605 5.555 0 0 Z " fill="#0591F9" transform="translate(199,245)"/>
<path d="M0 0 C-2.04075199 7.80179379 -5.04160529 14.8829569 -8.5625 22.125 C-9.09552734 23.22448975 -9.62855469 24.32397949 -10.17773438 25.45678711 C-21.58640314 48.62937072 -37.2980102 69.34997054 -55.4375 87.6875 C-56.02901855 88.28836426 -56.62053711 88.88922852 -57.22998047 89.50830078 C-57.79217285 90.06630371 -58.35436523 90.62430664 -58.93359375 91.19921875 C-59.42915771 91.69252686 -59.92472168 92.18583496 -60.43530273 92.6940918 C-64.58948808 96.16120639 -68.27860669 96.354749 -73.515625 96.26953125 C-76.80076298 95.91312477 -79.22458975 94.75289068 -82 93 C-80.9171875 92.17048828 -80.9171875 92.17048828 -79.8125 91.32421875 C-54.4322687 70.35027761 -35.19474852 35.83883939 -23.953125 5.5 C-23 3 -23 3 -22 2 C-19.89980546 1.7891018 -17.79417378 1.63122773 -15.6875 1.5 C-11.24977332 1.25827947 -11.24977332 1.25827947 -6.89453125 0.46875 C-4.56010331 -0.10884042 -2.39701751 -0.02948663 0 0 Z " fill="#0592FA" transform="translate(490,288)"/>
<path d="M0 0 C2.87602455 -0.10852923 5.74790832 -0.1875515 8.625 -0.25 C9.43324219 -0.28351563 10.24148438 -0.31703125 11.07421875 -0.3515625 C16.56370226 -0.44082239 19.6708666 0.29692589 24 4 C26.29987989 7.44981983 26.26124714 8.77801995 26.29052734 12.8449707 C26.3096669 14.64748039 26.3096669 14.64748039 26.32919312 16.48640442 C26.33141876 17.78639877 26.33364441 19.08639313 26.3359375 20.42578125 C26.34236632 21.77475628 26.34909475 23.12372992 26.35610962 24.47270203 C26.36808509 27.30141428 26.37179032 30.13000442 26.37060547 32.95874023 C26.37040257 36.57362232 26.39767209 40.18771565 26.43214989 43.80241108 C26.45445388 46.58979343 26.45844192 49.37698726 26.45738602 52.16444969 C26.46087775 54.14194436 26.48252422 56.11938018 26.50448608 58.09675598 C26.4466847 69.47364838 26.4466847 69.47364838 22 74 C19.20065803 75.92722334 17.03140425 76.24330578 13.671875 76.1953125 C12.47304688 76.18564453 12.47304688 76.18564453 11.25 76.17578125 C10.425 76.15902344 9.6 76.14226562 8.75 76.125 C7.90953125 76.11597656 7.0690625 76.10695313 6.203125 76.09765625 C4.13529396 76.07415817 2.06761005 76.03828908 0 76 C0.73017334 74.44152344 0.73017334 74.44152344 1.47509766 72.8515625 C3.72121863 66.82096294 3.4294321 60.73470043 3.3984375 54.375 C3.40130768 53.07353027 3.40417786 51.77206055 3.40713501 50.43115234 C3.41153592 47.68771575 3.40520023 44.94457395 3.39111328 42.20117188 C3.37402222 38.70442228 3.38387553 35.20836372 3.40183067 31.7116394 C3.41534715 28.34937255 3.40585247 24.98728641 3.3984375 21.625 C3.40451019 20.37895996 3.41058289 19.13291992 3.4168396 17.84912109 C3.3631779 11.18249819 2.83964039 6.0609074 0 0 Z " fill="#C3E1FE" transform="translate(272,173)"/>
<path d="M0 0 C14.56739591 8.22309078 21.9752849 18.61596005 28 34 C25.30056445 35.97083082 22.58901216 37.92430376 19.875 39.875 C18.73417969 40.70837891 18.73417969 40.70837891 17.5703125 41.55859375 C13.4915055 44.47705048 9.93837315 46.75357355 5 48 C4.91363281 47.154375 4.82726562 46.30875 4.73828125 45.4375 C3.70748352 37.1154633 2.42364465 30.8717504 -4.03515625 25.21875 C-6.59626518 23.24795112 -9.10721116 21.44639442 -12 20 C-11.41272064 15.80661927 -8.96859118 12.78494141 -6.5625 9.4375 C-5.75121674 8.29042494 -4.94001606 7.14329147 -4.12890625 5.99609375 C-3.42636719 5.00738281 -2.72382813 4.01867187 -2 3 C-1.34 2.01 -0.68 1.02 0 0 Z " fill="#88C6FA" transform="translate(308,140)"/>
<path d="M0 0 C3.41640563 3.18916764 6.10476805 6.73251432 8.75 10.5625 C9.36681641 11.4277832 9.36681641 11.4277832 9.99609375 12.31054688 C13 16.63677066 13 16.63677066 13 20 C11.171875 21.4296875 11.171875 21.4296875 8.75 22.875 C2.2462494 27.03413832 -1.05479043 31.56469238 -3 39 C-3.49366355 42.32748221 -3.80049284 45.64277602 -4 49 C-12.25975369 44.84827195 -19.56659878 39.44552152 -27 34 C-20.86043879 19.3713807 -14.23524815 8.14916379 0 0 Z " fill="#88C6FA" transform="translate(203,140)"/>
<path d="M0 0 C6.37666365 -0.52422707 10.85060177 1.21890977 16.625 3.8125 C17.99120483 4.4149353 17.99120483 4.4149353 19.38500977 5.02954102 C65.80462038 25.83173975 65.80462038 25.83173975 74 42 C74.25 44.75 74.25 44.75 73 47 C63.7930885 52.17888772 53.75667298 52.27347731 43.4375 52.125 C42.23802734 52.11597656 41.03855469 52.10695313 39.80273438 52.09765625 C36.86827691 52.07427412 33.93424766 52.0415028 31 52 C31 51.67 31 51.34 31 51 C37.27 51 43.54 51 50 51 C50.8241654 42.44077599 50.8241654 42.44077599 47.625 34.8125 C46.4603128 33.50154976 45.24746928 32.23243953 44 31 C43.29617188 30.28328125 42.59234375 29.5665625 41.8671875 28.828125 C29.52809874 17.01843608 14.07300939 9.66164563 -1 2 C-0.67 1.34 -0.34 0.68 0 0 Z " fill="#87C4F8" transform="translate(423,223)"/>
<path d="M0 0 C6.66666667 3.33333333 13.33333333 6.66666667 20 10 C17.95492538 18.6347595 12.04341527 25.84628151 5 31 C1.76938517 27.76938517 1.10292368 23.49599695 -0.1875 19.1875 C-0.47302734 18.28451172 -0.75855469 17.38152344 -1.05273438 16.45117188 C-1.31763672 15.57396484 -1.58253906 14.69675781 -1.85546875 13.79296875 C-2.09934326 12.9939917 -2.34321777 12.19501465 -2.59448242 11.37182617 C-3.32679289 7.0886256 -2.06767524 3.72181542 0 0 Z " fill="#0591F8" transform="translate(312,245)"/>
<path d="M0 0 C0.72132879 3.21319188 0.89235728 5.80791052 0 9 C-3.23634565 12.10539525 -7.01829634 13.9875866 -11 16 C-12.12277344 16.58265625 -13.24554688 17.1653125 -14.40234375 17.765625 C-17.24945873 19.21457293 -20.12263459 20.61209433 -23 22 C-23 16.72 -23 11.44 -23 6 C-23.66 5.67 -24.32 5.34 -25 5 C-24.07058594 4.80664062 -23.14117187 4.61328125 -22.18359375 4.4140625 C-14.47318989 2.83972265 -14.47318989 2.83972265 -6.875 0.8125 C-4 0 -4 0 0 0 Z " fill="#84C1F3" transform="translate(199,219)"/>
<path d="M0 0 C8.07709751 1.37585829 16.02662674 3.11382568 24 5 C23.67 10.61 23.34 16.22 23 22 C20.504375 20.783125 18.00875 19.56625 15.4375 18.3125 C14.66591553 17.94036377 13.89433105 17.56822754 13.09936523 17.18481445 C8.3666454 14.84649984 4.04581646 12.41365763 0 9 C-0.68359375 6.54296875 -0.68359375 6.54296875 -0.4375 4.1875 C-0.37433594 3.39730469 -0.31117188 2.60710937 -0.24609375 1.79296875 C-0.16488281 1.20128906 -0.08367187 0.60960937 0 0 Z " fill="#84C1F4" transform="translate(313,219)"/>
<path d="M0 0 C1 1 1 1 1.3125 4.375 C1.28193966 9.97772976 -0.89411214 14.88570092 -3 20 C-7.21477565 15.92118485 -11.10803395 11.58309472 -15.01171875 7.20703125 C-16.30508896 5.7713649 -17.6336281 4.3663719 -19 3 C-12.45249507 0.70358908 -6.95123699 -0.44134838 0 0 Z " fill="#85C2F5" transform="translate(431,47)"/>
<path d="M0 0 C1.670625 1.0725 3.34125 2.145 5.0625 3.25 C9.31487485 5.95855401 13.59343778 8.55190988 18 11 C15.43933269 14.17416051 12.90360843 14.7833554 9 15.6875 C7.4221875 16.06455078 7.4221875 16.06455078 5.8125 16.44921875 C3 17 3 17 0 17 C0 11.39 0 5.78 0 0 Z " fill="#058EF3" transform="translate(176,192)"/>
<path d="M0 0 C0.33 0 0.66 0 1 0 C1 5.61 1 11.22 1 17 C-2.6196875 16.3503125 -2.6196875 16.3503125 -6.3125 15.6875 C-7.44619019 15.49353638 -7.44619019 15.49353638 -8.6027832 15.2956543 C-12.41071428 14.5720097 -14.4499992 13.87771175 -17 11 C-16.28082397 10.55346069 -16.28082397 10.55346069 -15.54711914 10.09790039 C-13.38470639 8.75416593 -11.22358963 7.40836126 -9.0625 6.0625 C-7.93038086 5.35963867 -7.93038086 5.35963867 -6.77539062 4.64257812 C-6.05673828 4.19462891 -5.33808594 3.74667969 -4.59765625 3.28515625 C-3.93258057 2.87144775 -3.26750488 2.45773926 -2.58227539 2.03149414 C-1.02514658 1.09387816 -1.02514658 1.09387816 0 0 Z " fill="#058EF4" transform="translate(335,192)"/>
</svg>
